<?xml version="1.0" encoding="utf-8"?>
<!-- Generator: Adobe Illustrator 19.1.0, SVG Export Plug-In . SVG Version: 6.00 Build 0)  -->
<svg version="1.1" id="Capa_1" xmlns="http://www.w3.org/2000/svg" xmlns:xlink="http://www.w3.org/1999/xlink" x="0px" y="0px"
	 viewBox="-745.000061 580.8519897 45.0000381 33.7650223"
	 style="enable-background:new -745.000061 580.8519897 45.0000381 33.7650223;" xml:space="preserve">
<g>
	<g>
		<g>
			<path d="M-700.5680542,611.8150024h-2.1929932v-0.3029785c0-0.3030396-0.2449951-0.5490112-0.5479736-0.5490112h-1.6459961
				V593.742981h1.6459961c0.3029785,0,0.5479736-0.242981,0.5479736-0.5479736v-1.0980225
				c0-0.3029785-0.2449951-0.5499878-0.5479736-0.5499878h-38.3970337c-0.3039551,0-0.5489502,0.2470093-0.5489502,0.5499878
				v1.0980225c0,0.3049927,0.2449951,0.5479736,0.5489502,0.5479736h1.6460571v17.2210083h-1.6460571
				c-0.3039551,0-0.5489502,0.2460327-0.5489502,0.5510254v0.302002h-2.1940308
				c-0.3029785,0-0.5479736,0.2449951-0.5479736,0.5490112v1.7039795c0,0.3059692,0.2449951,0.5469971,0.5479736,0.5469971
				h43.8809814c0.3040161,0,0.5480347-0.2410278,0.5480347-0.5469971v-1.7059937
				C-700.0200195,612.0599976-700.2650146,611.8150024-700.5680542,611.8150024z M-723.7630005,610.9630127V593.742981h2.5079956
				v17.2210083h-2.5079956V610.9630127z M-719.0610352,610.9630127V593.742981h2.5090332v17.2210083h-2.5090332V610.9630127z
				 M-725.9570312,593.7440186v17.2199707h-2.5089722v-17.2199707H-725.9570312z M-714.3600464,610.9630127V593.742981h2.5090332
				v17.2210083h-2.5090332V610.9630127z M-730.6589966,593.7440186v17.2199707h-2.5080566v-17.2199707H-730.6589966z
				 M-707.1500244,610.9630127h-2.5100098V593.742981h2.5100098V610.9630127z M-737.868042,593.7440186h2.5100098v17.2199707
				h-2.5100098V593.7440186z"/>
			<path d="M-744.4500122,590.7280273h43.8809814c0.0090332,0,0.0159912,0,0.0209961,0
				c0.3030396,0,0.5480347-0.2470093,0.5480347-0.5500488c0-0.2649536-0.1870117-0.4849854-0.4360352-0.5359497
				l-21.8699951-8.7480469c-0.1309814-0.0559692-0.2769775-0.0559692-0.40802,0l-21.9400024,8.7740479
				c-0.2449951,0.0999756-0.3859863,0.355957-0.3359985,0.6129761
				C-744.9370117,590.5410156-744.7109985,590.7280273-744.4500122,590.7280273z"/>
		</g>
	</g>
</g>
</svg>
